<svg xmlns="http://www.w3.org/2000/svg" data-name="Layer 1" viewBox="0 0 95 118.75" x="0px" y="0px"><defs><style>.cls-1{fill-rule:evenodd;}</style></defs><title>a</title><path class="cls-1" d="M38.331,63.3V31.7L59.747,47.5,38.331,63.3Zm26.22-17.5L37.475,25.822a2.109,2.109,0,0,0-3.362,1.7V67.481a2.109,2.109,0,0,0,3.362,1.7L64.551,49.2a2.11,2.11,0,0,0,0-3.4ZM79.216,12.467H15.784A13.3,13.3,0,0,0,2.5,25.749v43.5A13.3,13.3,0,0,0,15.784,82.533H79.216A13.3,13.3,0,0,0,92.5,69.251v-43.5A13.3,13.3,0,0,0,79.216,12.467Z"/><text x="0" y="110" fill="#000000" font-size="5px" font-weight="bold" font-family="'Helvetica Neue', Helvetica, Arial-Unicode, Arial, Sans-serif"></text><text x="0" y="115" fill="#000000" font-size="5px" font-weight="bold" font-family="'Helvetica Neue', Helvetica, Arial-Unicode, Arial, Sans-serif"></text></svg>